<svg width="177" height="87" viewBox="0 0 177 87" fill="none" xmlns="http://www.w3.org/2000/svg"><path d="M75.79 22.09l-.141-.405a10.176 10.176 0 01-.323-1.063.599.599 0 00-.337-.489 4.455 4.455 0 01-2.095-2.237 2.896 2.896 0 01-.31-1.23v-.811a3.58 3.58 0 01.746-2.25 3.727 3.727 0 012.375-1.679c.197-.223.534 0 .73-.209a5.255 5.255 0 012.137.252c.365.1.702.28.984.531l-.464-.126a3.119 3.119 0 00-.492-.112h-.955a2.433 2.433 0 00-1.477.391 3.764 3.764 0 00-1.84 2.224c-.094.374-.132.76-.113 1.146a3.326 3.326 0 001.055 2.558c.46.47 1.037.814 1.672.994 0 0 .083.07.126.07.253 0 .492.097.717.097a3.816 3.816 0 001.518-.293 5.44 5.44 0 001.265-.742c.154-.112.252-.308.407-.447a1.55 1.55 0 01-.45.825c-.38.464-.86.836-1.405 1.09a3.387 3.387 0 01-1.616.462c-.255.02-.509.057-.76.111.206.541.385 1.092.535 1.65.154.49.338.965.464 1.399.127.433.322.936.421 1.398.105.424.232.845.38 1.258.126.419.253.84.394 1.243.14.406.323.924.435 1.398.112.477.31.938.436 1.398.225.854.492 1.678.758 2.517.127.392.253.798.367 1.203l.547 1.845c.21.713.407 1.399.66 2.126a2.458 2.458 0 001.604 1.523 5.42 5.42 0 002.542.308 8.74 8.74 0 001.702-.308 9.194 9.194 0 001.897-.839 7.44 7.44 0 002.15-1.733 4.666 4.666 0 00.984-1.72c.098.58.029 1.177-.197 1.72a6.085 6.085 0 01-1.785 2.404 10.36 10.36 0 01-1.672 1.203h2.332c.604 0 1.181-.097 1.772-.14a9.819 9.819 0 001.546-.196c.52-.097 1.04-.196 1.56-.32l1.406-.392c.449-.127.898-.252 1.32-.392.422-.14.815-.335 1.224-.49.407-.153.731-.335 1.096-.503.364-.168.703-.35 1.04-.545a20.026 20.026 0 001.826-1.258h.085c.084 0 0 .14 0 .168-.43.456-.9.873-1.406 1.243-.281.183-.478.477-.772.644-.296.167-.942.685-1.406.978a41.65 41.65 0 01-2.249 1.175c-.337.154-.688.252-1.04.378-.351.125-.814.335-1.237.46-.42.127-.941.267-1.406.378l-.898.225c-.296.069-.604.097-.9.194-.296.099-.464 0-.717.112-.253.112-.844 0-1.25.141-.822.088-1.649.12-2.474.097-.17 0-.351.14-.506.098a11.523 11.523 0 00-2.305-.098c-.224 0-.421-.153-.66-.111a.834.834 0 01-.675-.112c-.35.018-.702-.02-1.04-.112a5.248 5.248 0 01-1.322-.252c-.197 0-.379 0-.562-.084-.786-.266-1.601-.433-2.36-.74-.45-.156-.892-.332-1.323-.532-.35-.182-.758-.294-1.11-.476-.35-.181-1.012-.56-1.56-.81.06.059.112.124.155.196.155.224.296.46.464.67.381.453.784.887 1.208 1.3a25.293 25.293 0 001.954 1.72 26.91 26.91 0 002.221 1.51c.382.247.781.466 1.194.658.73.35 1.486.64 2.264.867l.926.293c.296.098.62.112.93.238.288.078.585.12.884.125l.548.112c.169 0 .365 0 .52.084a.183.183 0 00.155 0c.646 0 1.28.14 1.911.125.633-.013 1.321 0 1.981 0 .24 0 .45-.167.718-.125a1.7 1.7 0 00.703 0c.547-.125 1.124-.097 1.658-.21a24.92 24.92 0 002.811-.642.411.411 0 01.365.069l-2.024.783a2.384 2.384 0 00-.983.252 3.199 3.199 0 00-.97.28c-.506 0-.942.279-1.406.238-.154 0-.295.082-.45.097-.154.013-.323 0-.45.112l-1.489.097-1.152.112h-1.153c-.267 0-.548-.083-.83-.097-.27.028-.543.028-.815 0-.24-.07-.491 0-.716-.099a5.96 5.96 0 00-.661-.112 12.886 12.886 0 01-1.406-.349c-.547-.153-1.081-.335-1.672-.518a.516.516 0 000 .225c.152.363.356.701.604 1.006a5.242 5.242 0 001.87 1.3c.54.2 1.088.374 1.645.519.505.153 1.054.138 1.56.334.829-.07 1.63.182 2.459.099.267 0 .52-.084.787-.099.27.02.544.02.815 0 .478-.097.97-.097 1.406-.224a10.905 10.905 0 001.743-.419.45.45 0 01.364 0l-1.053.476a8.465 8.465 0 01-2.306.769c-.534.083-1.081.14-1.6.238-.608.064-1.22.087-1.828.07h-1.856c-.21 0-.38-.155-.603-.127-.225.028-.409-.097-.619-.083a2.212 2.212 0 01-.604-.126l-.562-.098a4.074 4.074 0 01-.591-.154 12.332 12.332 0 01-1.406-.699 9.19 9.19 0 01-1.222-1.118 4.184 4.184 0 01-.984-2.083c0-.238-.1-.477-.14-.727a14.233 14.233 0 01-1.238-.727c-.364-.28-.787-.448-1.124-.756-.338-.307-.731-.503-1.083-.782-.35-.28-.632-.532-.927-.811-.295-.28-.815-.826-1.237-1.216a13.603 13.603 0 01-1.503-1.734 26.132 26.132 0 01-1.195-1.776c-.38-.615-.83-1.58-1.237-2.376a11.208 11.208 0 01-.675-2.042c-.112-.447-.422-.839-.379-1.315-.225-.167 0-.418-.154-.6-.155-.182 0-.42 0-.616s0-.391-.099-.56a.308.308 0 010-.306c.14-.168.084-.35.084-.518.038-.652.16-1.296.366-1.916.24-.699.562-1.37.956-1.999.255-.373.53-.733.829-1.076a7.61 7.61 0 01.618-.712 19.071 19.071 0 012.712-2.155c.13-.094.266-.178.408-.25zm5.27 17.253s-.085-.07-.098-.112c-.07-.461-.296-.895-.395-1.398-.098-.504-.266-.909-.406-1.399a22.84 22.84 0 00-.394-1.242 4.388 4.388 0 01-.351-1.274 11.34 11.34 0 01-.633-1.914c-.183-.658-.394-1.33-.59-1.986-.197-.658-.478-1.58-.731-2.363-.254-.783-.394-1.175-.548-1.776a5.57 5.57 0 01-.338-1.16l-.197-.196c-.406.308-.801.573-1.152.896a9.495 9.495 0 00-1.659 1.859 9.372 9.372 0 00-.702 1.398c-.19.49-.335.994-.436 1.51a9.393 9.393 0 00.113 2.068c.138.415.298.82.478 1.217.155.358.354.696.59 1.007a8.25 8.25 0 001.194 1.398c.321.318.669.608 1.04.866.548.337 1.026.77 1.588 1.063.872.476 1.771.895 2.671 1.315.312.098.632.173.956.223zM51.08 18.889h3.303c.422.643.984 1.202 1.405 1.846.422.642.76.88 1.111 1.398.351.517.717.88 1.054 1.398.337.517.759.866 1.11 1.399.352.53.745.866 1.055 1.397.154.238.364.433.534.656.575.7 1.152 1.399 1.7 2.126.352.462.773.867 1.11 1.398.338.531.732.88 1.055 1.398.322.518.801.908 1.152 1.398.351.49.632.769.9 1.202.17.225.354.439.547.644.563.713 1.14 1.398 1.687 2.125.365.476.802.894 1.153 1.398.35.503.703.853 1.025 1.314.323.462.746.895 1.111 1.398.365.503.688.867 1.068 1.398a7.586 7.586 0 01-1.405 0h-1.56l-4.006-5.005H39.275l-4.019 4.6h-2.249c-.243.02-.487.02-.73 0 0-.084.084-.154.127-.21.571-.632 1.101-1.3 1.587-1.999a8.09 8.09 0 01.548-.658 33.36 33.36 0 001.237-1.551c.393-.531.76-.867 1.11-1.328.352-.462.745-.88 1.054-1.398.187-.255.389-.497.604-.727.38-.49.802-.938 1.14-1.398.161-.232.34-.452.534-.658.435-.502.843-1.02 1.236-1.552.394-.53.76-.866 1.11-1.327.351-.462.731-.88 1.054-1.399.323-.517.717-.825 1.027-1.272.309-.447.73-.88 1.068-1.399.337-.517.759-.88 1.096-1.398.338-.517.76-.866 1.069-1.398.185-.175.382-.338.589-.489.562-.713 1.152-1.398 1.701-2.139.21-.28.463-.531.688-.797.225-.265.127-.265.225-.39zm1.604 1.72L40.948 35.274h23.555L52.683 20.61h.002zm70.019-1.706h3.19c.355.35.675.735.956 1.146.162.231.34.45.534.657a26.57 26.57 0 011.237 1.553c.392.53.772.866 1.11 1.398.337.531.731.88 1.068 1.398.337.517.703.824 1.025 1.258.324.433.718.88 1.055 1.399.337.516.759.88 1.11 1.398.351.517.744.866 1.054 1.398.158.229.337.444.534.642.436.504.843 1.02 1.251 1.552.407.531.759.88 1.097 1.398.337.518.744.88 1.068 1.398.161.232.339.452.533.657a27.19 27.19 0 011.237 1.552c.393.545.646.783.956 1.175.52.656 1.026 1.328 1.56 1.97.535.644.745.896 1.11 1.399.127.14.225.308.366.489h-2.811c-1.406-1.608-2.67-3.327-4.062-5.005H110.87c-1.406 1.594-2.629 3.3-4.006 4.977h-2.994l1.251-1.608c.366-.447.759-.88 1.11-1.398.352-.518.731-.88 1.055-1.398.323-.518.758-.867 1.11-1.398.351-.532.969-1.132 1.405-1.761.181-.242.372-.476.576-.7.521-.614 1.04-1.23 1.546-1.86.506-.628.844-1.062 1.265-1.593.489-.614.958-1.243 1.406-1.887.422-.616.773-.88 1.124-1.399.351-.517.717-.88 1.054-1.398.337-.517.759-.88 1.111-1.398.351-.517.745-.866 1.054-1.398.186-.254.387-.497.604-.726.235-.192.438-.419.605-.671.112-.267.393-.378.491-.658.099-.28.309-.377.464-.573.45-.685 1.04-1.328 1.603-1.985zm1.657 1.734c-.14.14-.294.265-.421.42a41.18 41.18 0 00-1.405 1.9c-.436.63-.858 1.049-1.28 1.595-.421.544-1.025 1.244-1.531 1.859a8.437 8.437 0 00-.577.684c-.199.309-.42.603-.66.88-.253.28-.463.602-.703.897-.238.293-.787.866-1.11 1.398-.324.53-.689.867-1.026 1.313-.338.448-.857 1.063-1.265 1.595-.407.53-1.082 1.3-1.616 1.943a1.127 1.127 0 00-.098.181h23.457a9.751 9.751 0 01-.802-.922c-.141-.21-.338-.364-.464-.573-.309-.49-.717-.895-1.053-1.399-.338-.503-.774-.866-1.111-1.398-.337-.531-.759-1.006-1.166-1.467a4.094 4.094 0 01-.493-.616c-.309-.49-.716-.894-1.068-1.398-.351-.503-.759-.88-1.096-1.398-.337-.518-.815-1.048-1.251-1.551a4.645 4.645 0 01-.534-.644c-.309-.49-.716-.895-1.054-1.398-.337-.503-.745-.895-1.111-1.398-.224 0-.393-.252-.562-.503z" fill="#000"/><path d="M104.896 25.49a15.925 15.925 0 00-3.894-2.463c-.926-.433-1.925-.699-2.81-1.076-.548 0-1.054-.28-1.602-.363l-1.743-.322a3.583 3.583 0 01-.815-.112c-.295-.14-.576 0-.844-.098a16.25 16.25 0 00-1.644-.112 10.56 10.56 0 00-1.756-.097c-.774 0-1.533.181-2.305.11-.323.155-.675 0-.984.127-.31.127-.647 0-.941.112a3.293 3.293 0 01-.746.084l-1.237-1.916c.189-.093.395-.145.604-.153a5.04 5.04 0 00.661-.098c.225 0 .48.07.675-.112.198-.182.07 0 .099 0a34.514 34.514 0 014.217-.084l1.404.083c.19.025.378.063.562.113.197 0 .407 0 .619.083.21.085.407 0 .59 0 .42.141.854.24 1.293.294.41.135.834.215 1.265.239.487.191.984.355 1.49.488l1.405.574c1 .445 1.976.946 2.923 1.496a16.627 16.627 0 013.402 2.796c.046.133.083.267.112.405v.001zM40.892 54.218h.998a.269.269 0 01.295.181c.21.714.52 1.398.773 2.084.14.405.31.81.478 1.201.169.393.422.88.562 1.399.14.517.379.866.492 1.398.143.38.317.75.52 1.105.351-.839.703-1.622.998-2.42.295-.797.633-1.622.942-2.431.309-.811.645-1.595.956-2.377h1.264v8.388h-.844v-7.424c-.294.699-.533 1.286-.772 1.873-.24.588-.365.867-.52 1.3-.324.867-.703 1.706-1.012 2.573-.155.447-.365.867-.549 1.3a.976.976 0 01-.14.224h-.548a.254.254 0 01-.28-.195c-.212-.727-.522-1.398-.788-2.112-.268-.712-.52-1.272-.787-1.916-.267-.642-.534-1.23-.731-1.873-.07-.209-.182-.432-.267-.642-.086-.213-.18-.423-.28-.63v7.354h-.746l-.014-8.36zm97.258 2.041c-.361.02-.723.02-1.083 0a3.159 3.159 0 00-1.11-.993 2.697 2.697 0 00-1.631-.42 3.047 3.047 0 00-2.122.672c-.435.362-.8.797-1.082 1.286a4.027 4.027 0 00-.253.825c0 .196.099.461-.113.657.183.308 0 .671.141.979.073.257.162.51.267.755a3.772 3.772 0 001.406 1.468 2.7 2.7 0 001.293.434c.169 0 .351.125.506.082a4.52 4.52 0 001.517-.404 3.485 3.485 0 001.195-1.063c.169-.252.267-.518.422-.755a.756.756 0 000-.461h-4.217v-.755h5.327a5.34 5.34 0 01-.815 2.433c-.348.46-.776.853-1.265 1.16a4.39 4.39 0 01-1.405.559 3.514 3.514 0 01-.998.084 4.234 4.234 0 01-2.46-.727 3.855 3.855 0 01-1.574-2.447c-.21-.28 0-.657-.21-.95v-.476c0-.028.084-.531.154-.797.071-.265.225-.573.294-.866.058-.213.163-.41.31-.574.16-.253.359-.48.59-.671a4.4 4.4 0 011.237-.839c.365-.097.703-.238 1.083-.308.29-.062.587-.09.885-.083a4.525 4.525 0 011.953.53 5.21 5.21 0 011.406 1.399c.112.095.229.184.352.266zM36.634 74.66a3.877 3.877 0 01-2.502-.854 4.194 4.194 0 01-1.574-2.278 2.558 2.558 0 01-.113-.657.919.919 0 00-.083-.462.669.669 0 010-.6c.125-.197 0-.463.125-.658a2.31 2.31 0 01.45-1.119 4.56 4.56 0 011.982-1.76c.378-.2.795-.316 1.222-.336.169 0 .352-.112.506-.084.45.037.896.103 1.336.196.425.112.825.3 1.18.559a4.69 4.69 0 011.504 1.803c.192.35.302.735.323 1.132.02.134.054.264.099.392a1.77 1.77 0 010 .378 4.798 4.798 0 01-1.308 3.104 4.784 4.784 0 01-1.798 1.09 7.205 7.205 0 01-1.35.154zm.169-7.984a2.255 2.255 0 00-.437 0 3.638 3.638 0 00-1.04.252 3.51 3.51 0 00-1.406 1.398 2.788 2.788 0 00-.547 1.398v.239c0 .07-.084.362 0 .46.084.098 0 .308.084.462a2.324 2.324 0 000 .32 3.982 3.982 0 001.7 2.21c.328.221.716.338 1.111.336a1.96 1.96 0 001.49 0 3.378 3.378 0 001.41-.788c.4-.373.701-.837.88-1.352a3.118 3.118 0 00-.014-2.544 3.383 3.383 0 00-1.11-1.608 3.074 3.074 0 00-2.121-.74v-.042zM75.93 74.66a3.626 3.626 0 01-2.516-.783 3.811 3.811 0 01-1.603-2.476.918.918 0 01-.098-.712c0-.224-.253-.377 0-.642.253-.267 0-.42 0-.63a4.743 4.743 0 01.633-1.538 4.33 4.33 0 011.096-1.16 2.932 2.932 0 011.406-.643 3.05 3.05 0 01.492-.112c.153-.017.304-.05.45-.099.181 0 .393-.097.575 0a.297.297 0 00.198 0c.776.06 1.516.352 2.122.84.364.292.69.631.97 1.006.243.324.416.696.505 1.09a3.44 3.44 0 01.169 1.664 5.65 5.65 0 01-.268 1.398 5.058 5.058 0 01-1.039 1.58 3.898 3.898 0 01-1.743 1.063c-.435.139-.894.19-1.35.154zm.14-7.941a5.237 5.237 0 00-.94.097c-.41.113-.796.298-1.14.546a2.93 2.93 0 00-.926 1.02c-.31.435-.48.951-.493 1.481v.491c0 .027.083.307.112.461.006.256.048.51.126.755a3.767 3.767 0 001.856 2.013c.296.126.632.14.926.251a2.416 2.416 0 001.548-.097 3.55 3.55 0 001.981-1.678 3.858 3.858 0 00.435-2.265 1.893 1.893 0 00-.167-.685 3.705 3.705 0 00-1.181-1.636 3.299 3.299 0 00-2.137-.754zm36.528-8.263a3.788 3.788 0 01-.534 2.223c-.252.44-.58.833-.969 1.16a3.937 3.937 0 01-1.041.685c-.28.12-.572.21-.871.266-.359.083-.729.111-1.096.083a4.074 4.074 0 01-2.699-1.118 4.59 4.59 0 01-1.11-1.664 2.595 2.595 0 01-.198-.518 5.56 5.56 0 01-.111-1.522c.07-.365.14-.742.238-1.105.087-.29.23-.562.422-.798a4.55 4.55 0 011.012-1.118 5.341 5.341 0 011.406-.769s.084-.083.127-.07c.435 0 .842-.181 1.264-.125a4.228 4.228 0 012.657 1.133c.105.118.217.23.337.335a4.192 4.192 0 011.082 2c.072.301.1.612.084.922zm-7.758-.308c-.004.75.18 1.49.534 2.154.218.408.525.76.9 1.034.286.3.68.476 1.095.49.184.181.408.083.619.11.211.029.324.14.436.1a3.36 3.36 0 01.618-.1 2.33 2.33 0 00.816-.279 4.936 4.936 0 001.208-1.034 5.128 5.128 0 00.773-2.292v-.155c0-.013-.126-.293-.126-.405a1.524 1.524 0 00-.183-.741 3.92 3.92 0 00-1.223-1.58 2.537 2.537 0 00-1.785-.573h-.703a.99.99 0 00-.351 0 3.678 3.678 0 00-1.784 1.23 3.8 3.8 0 00-.844 2.041zM82.872 54.22h.296c.703 0 .787 0 1.095.6.31.601.633 1.05.956 1.566l.97 1.496c.422.671.858 1.398 1.266 2.028.407.629.604.95.9 1.398v-7.06h.87v8.39H88.2l-4.596-7.355h-.097c0 .587.097 1.174.112 1.775.014.6 0 1.23 0 1.845v3.636h-.76l.014-8.32zm38.679 20.328v-8.472h2.375c.407-.005.813.043 1.209.14.297.066.573.204.801.404.451.308.772.772.899 1.301.119.308.176.635.169.965a3.765 3.765 0 01-.366 1.215 2.418 2.418 0 01-.744.811 1.325 1.325 0 01-.984.28c.351.6.703 1.133 1.026 1.692.323.56.689 1.049 1.012 1.636-.29.02-.581.02-.872 0a3.83 3.83 0 01-.463-.6c-.577-1.091-1.406-2.085-1.912-3.175 0-.112-.14-.182-.267-.336h.927a1.822 1.822 0 001.561-.824c.112-.14.084-.377.141-.545a.6.6 0 000-.532v-.419a1.756 1.756 0 00-1.406-1.16h-2.221v6.99a3.405 3.405 0 000 .377.274.274 0 01-.015.106.273.273 0 01-.146.153.26.26 0 01-.105.02l-.619-.027zM60.287 59.39l1.968 3.175h-.984l-2.488-4.027h.858a1.905 1.905 0 001.574-.811 2.53 2.53 0 00.14-1.3 2.444 2.444 0 00-.66-1.077 1.142 1.142 0 00-.605-.28 8.04 8.04 0 00-1.152-.112H57.73v7.579h-.83v-8.39h2.994a2.82 2.82 0 011.645.644c.329.414.572.89.716 1.398.066.213.104.435.112.657a2.514 2.514 0 01-.57 1.653 2.546 2.546 0 01-1.51.891zm42.782-3.005h-1.055a1.381 1.381 0 00-.253-.378 3.937 3.937 0 00-1.701-1.035 4.077 4.077 0 00-1.531-.083 2.412 2.412 0 00-1.406.587 5.046 5.046 0 00-.871 1.007 2.787 2.787 0 00-.492 1.481.61.61 0 01-.07.406c0 .084.07.252.07.362a2.9 2.9 0 00.492 1.581 3.17 3.17 0 001.194 1.203c.395.247.843.395 1.308.433.106.032.21.075.309.126a.156.156 0 00.112 0c.253-.168.548-.083.815-.14a3.487 3.487 0 001.883-1.188.74.74 0 000-.21h1.012a3.813 3.813 0 01-1.883 1.86 4.473 4.473 0 01-2.404.405 5.45 5.45 0 01-1.32-.363 3.715 3.715 0 01-.942-.601 3.914 3.914 0 01-1.321-1.958 2.558 2.558 0 01-.169-.853.85.85 0 00-.083-.405 1.306 1.306 0 010-.573c0-.098.083-.197 0-.294.02-.185.059-.367.111-.545 0-.197.127-.321.155-.49a3.479 3.479 0 01.998-1.481 4.004 4.004 0 011.405-.924c.21-.097.464 0 .619-.209.464-.076.935-.11 1.405-.098.481.039.955.147 1.406.32.604.27 1.145.66 1.588 1.148.182.265.364.545.618.909h.001zm-28.952-.014h-.984a2.06 2.06 0 01-.211-.238 3.121 3.121 0 00-1.742-1.16 3.63 3.63 0 00-1.546-.07c-.473.047-.92.238-1.28.545-.451.33-.83.749-1.11 1.23a2.57 2.57 0 00-.352 1.217v.922c-.003.43.115.85.338 1.216a3.152 3.152 0 001.322 1.483c.388.248.832.396 1.292.433.155 0 .296.083.45.083.154 0 .253 0 .394-.083.14.008.28.008.421 0a3.541 3.541 0 001.897-1.273v-.153h1.041a2.57 2.57 0 01-.548.84 4.402 4.402 0 01-1.406 1.034 4.577 4.577 0 01-2.39.377 4.464 4.464 0 01-.955-.196 3.773 3.773 0 01-.632-.307 4.336 4.336 0 01-1.153-.922 3.699 3.699 0 01-.914-1.791c0-.181-.098-.362-.111-.56-.015-.195-.1-.362-.085-.544a6.58 6.58 0 00.098-1.048v-.07c.102-.5.302-.976.59-1.399.054-.088.12-.168.197-.238.154-.167.338-.321.492-.502.344-.398.784-.7 1.28-.88.192-.104.401-.175.618-.211.432-.1.877-.138 1.32-.112.481.05.953.158 1.406.321a4.225 4.225 0 011.588 1.16c.323.294.633.49.675.896zm36.19 16.008h.816c0 .112 0 .252-.071.321a4.208 4.208 0 01-1.968 1.65 3.414 3.414 0 01-.478.196 4 4 0 01-.716.112h-.815a3.89 3.89 0 01-2.559-1.078 3.818 3.818 0 01-.969-1.285 3.894 3.894 0 01-.408-1.398c0-.168-.098-.336-.098-.503a2.8 2.8 0 01.083-.826c.049-.284.12-.564.212-.839.099-.25.225-.489.337-.74a5.433 5.433 0 011.139-1.259c.23-.229.509-.406.815-.518a3.504 3.504 0 011.195-.306c.168 0 .337-.099.492-.084a4.908 4.908 0 012.81.95c.458.42.869.89 1.224 1.399h-1.041l-.702-.503c-.37-.41-.863-.69-1.406-.798a3.503 3.503 0 00-2.052.127c-.257.09-.496.227-.703.404-.417.312-.77.702-1.04 1.147a2.873 2.873 0 00-.364 1.146.728.728 0 01-.099.406v.461c0 .154.083.168 0 .239.003.502.165.99.463 1.398a2.988 2.988 0 001.406 1.397 2.492 2.492 0 001.996.238 2.816 2.816 0 001.897-.965l.604-.489zm-16.64 2.153h-.732V70.66h-4.06v3.257c.006.126.006.253 0 .378a.25.25 0 01-.176.241.255.255 0 01-.105.01h-.563v-8.458h.83v3.775h4.046v-3.788h.76v8.458zm-34.701-8.458h1.012l3.303 8.388h-.872c-.435-.839-.632-1.818-1.096-2.685h-3.71c-.408.867-.647 1.832-1.096 2.685h-.787c.227-.727.493-1.442.801-2.139.239-.713.548-1.398.815-2.097.267-.7.52-1.398.801-2.07.281-.67.548-1.327.829-2.082zm2.066 4.976c-.394-1.272-.984-2.446-1.406-3.69a1.395 1.395 0 00-.169-.321h-.126c-.477 1.272-.926 2.544-1.405 3.801v.169l3.106.041zm53.337.811c-.464.854-.689 1.818-1.096 2.698h-.774a.628.628 0 010-.28c.465-1.145.83-2.347 1.406-3.453a8.868 8.868 0 01.618-1.76l.661-1.678c.192-.456.351-.922.478-1.398h1.054l3.261 8.388c-.276.02-.554.02-.83 0-.154-.349-.309-.685-.435-1.035-.127-.349-.408-.992-.549-1.51 0-.14-.182-.196-.351-.181h-3.443v.21zm1.855-4.892h-.098c.014.097.014.195 0 .293-.23.499-.427 1.012-.591 1.538-.238.544-.421 1.104-.618 1.65 0 .18-.239.377-.154.615h3.077l-1.616-4.097zm-82.936-4.39h-.857c.464-1.4 1.068-2.797 1.588-4.195a175.638 175.638 0 011.645-4.195h1.04c1.053 2.796 2.15 5.48 3.175 8.236v.112h-.829c-.35-.854-.618-1.734-.997-2.573H34.3c-.366.852-.662 1.747-1.013 2.614zM36.1 55.07c-.253.7-.493 1.398-.746 2.056a21.27 21.27 0 00-.744 2.152h3.12c-.38-1.3-.998-2.474-1.406-3.746a2.047 2.047 0 00-.196-.447l-.028-.015zm39.268 7.508h-.844c.225-.723.493-1.433.802-2.125.24-.7.506-1.398.787-2.07.281-.67.576-1.398.844-2.096.266-.699.505-1.398.8-2.056h1.012l3.247 8.39h-.885l-.675-1.72c-.084-.224-.14-.462-.225-.672-.084-.21-.169-.196-.337-.196h-3.542l-.984 2.545zm2.81-7.564l-1.573 4.195h1.602c.524.028 1.05.028 1.574 0a63.71 63.71 0 00-1.56-4.124l-.042-.07zm61.278 17.03h.66a.23.23 0 01.197.067.222.222 0 01.056.198c.022.322.135.631.324.894a1.105 1.105 0 00.984.56c.381.074.778.005 1.11-.196a1.407 1.407 0 00.633-1.02c0-.197.238-.406 0-.615 0-.644-.408-.938-.9-1.203a5.603 5.603 0 00-.829-.378 5.413 5.413 0 01-.928-.391 1.898 1.898 0 01-.969-1.258 2.632 2.632 0 01.182-1.65 1.6 1.6 0 01.689-.77c.317-.252.72-.372 1.125-.335h.547a1.305 1.305 0 011.027.42c.063.089.139.169.225.238.225.125.253.363.351.56.104.181.153.39.14.6a1.88 1.88 0 000 .335h-.801a2.14 2.14 0 00-.281-.838 1.169 1.169 0 00-.576-.461 1.417 1.417 0 00-1.288.142 1.401 1.401 0 00-.624 1.13 1.203 1.203 0 00.787 1.243c.297.129.603.237.914.323.502.146.977.372 1.406.67a1.4 1.4 0 01.463.672c.104.217.156.457.155.699.012.404-.027.808-.112 1.201a2.619 2.619 0 01-.886 1.399 2.435 2.435 0 01-1.968.392 1.814 1.814 0 01-1.307-.825 2.408 2.408 0 01-.45-1.188 2.7 2.7 0 00-.056-.615zm-43.02-5.97h4.342v.852h-3.584v2.936h3.585v.769h-3.262c-.24 0-.323.084-.338.32v2.714h3.584v.867h-4.328v-8.458zm40.87 3.774v.783h-3.275c-.239 0-.323.084-.323.32v2.673h3.556v.838h-4.343v-8.39h4.357v.854h-3.585v2.908l3.613.014zm3.513-14.89v3.048h3.472v.769h-3.457v3.02h3.457v.742h-4.343v-8.39h4.357v.714l-3.486.097zm-12.241-.712v.727h-3.486v3.048h3.486v.726h-3.499v3.035h3.499v.74h-4.371v-8.39l4.371.114zm-76.864 3.788h3.471v.741h-3.47v3.035h3.442c.021.255.021.512 0 .768H50.8v-8.39h4.33v.742h-3.416v3.104zm13.998 16.498h-.773v-8.389h2.572a2.343 2.343 0 011.715.727c.385.422.606.969.618 1.538a2.79 2.79 0 01-.309 1.398 2.1 2.1 0 01-1.504 1.119c-.382.093-.774.13-1.166.112h-1.153v3.495zm0-7.591v3.145h1.813c.44-.068.846-.28 1.152-.6.211-.183.155-.421.253-.616a1.392 1.392 0 00-.126-1.146 1.402 1.402 0 00-1.293-.77c-.59-.056-1.194-.013-1.8-.013zm-18.285 2.907v.77h-3.275v3.48c0 .433 0 .448-.463.448h-.394v-8.39h4.118v.826h-3.246v2.922l3.26-.056zm38.594-3.76v.84h-1.616v7.604h-.802v-7.578h-1.715v-.867h4.133v.001zm33.885-4.265h2.952v.727h-3.781v-8.39h.829v7.663zm-5.115 0h3.036v.727h-3.782v-8.39h.746v7.663zm15.403 12.71h-.731v-8.39c.244-.015.488-.015.731 0v8.39zm-65.62-11.955h-.647v-8.39h.717l-.07 8.39z" fill="#000"/></svg>