<svg width="89" height="87" viewBox="0 0 89 87" fill="none" xmlns="http://www.w3.org/2000/svg"><path d="M41.35 87c-8.875-.138-19.283-4.27-27.776-12.746C4.888 65.592.586 55.017.774 42.766c.18-11.71 4.5-21.806 12.828-30.058C22.316 4.072 32.949-.197 45.269.01c11.947.197 22.198 4.618 30.526 13.112 8.46 8.627 12.596 19.095 12.43 31.163C87.907 67.735 68.537 87.055 41.35 87zM21.816 43.51h.06c.078-.32.157-.646.24-.966.373-1.444.705-2.9 1.34-4.252a119.682 119.682 0 012.45-4.87c.696-1.31 1.442-2.593 2.372-3.757 1.217-1.52 2.192-3.18 2.98-4.957.304-.683.59-1.375.889-2.061.35-.807.737-1.585 1.29-2.291.492-.632.889-1.337 1.368-1.979.234-.316.243-.605.114-.94-.055-.146-.129-.293-.198-.454.106-.1.203-.191.304-.283.511-.486 1.01-.98 1.54-1.448.905-.806 1.988-1.343 3.08-1.855.498-.234 1.022-.303 1.589-.248.7.069 1.409.083 2.113.05.35-.014.654.032.94.211.468.29.929.591 1.382.903.75.522 1.24 1.246 1.51 2.103.18.573.313 1.164.443 1.75a.45.45 0 00.271.357c.77.377 1.479.834 2.146 1.37.17.137.327.27.576.22.083-.018.194.042.281.087.188.1.373.21.552.326.632.416.682.934.144 1.47-.065.065-.148.11-.209.178-.1.114-.225.23-.284.367-.295.65-.673 1.237-1.3 1.622-.395.242-.801.476-1.197.71-.05.032-.106.064-.156.1-.382.258-.796.413-1.271.4-.268-.006-.534.041-.802.072-.16.019-.253-.027-.234-.22.097-.064.193-.128.294-.192l-2.79-.522c-.143.549-.263 1.127-.442 1.68a.98.98 0 00.063.79c.286.581.572 1.167.83 1.763.898 2.089 1.16 4.32 1.432 6.552.055.467-.009.966.291 1.392.035.052.013.147.018.225l-.06.045a23.308 23.308 0 00-.474-.288c.023.097.03.16.055.22.253.665.294 1.342.229 2.047-.054.588-.004 1.183-.004 1.774 0 .055-.023.11-.055.238-.286-.188-.525-.352-.783-.522-.295.724-.331 1.461-.415 2.221-.496-.09-.667-.453-.838-.77-.29.812-.585 1.614-.87 2.42-.557 1.576-1.24 3.088-2.192 4.471-.11.161-.17.367-.231.56a5.788 5.788 0 00-.183.728c-.08.453-.135.911-.198 1.374.105.019.147.031.192.031 1.166 0 2.33.005 3.5-.003.098 0 .208-.079.291-.143.35-.274.664-.6 1.036-.824.696-.422 1.46-.6 2.27-.339.733.238 1.373.61 1.765 1.292h1.551c.097-.72.231-1.416.287-2.121.078-1.003.096-2.012.142-3.014.055-1.26.133-2.51.46-3.74.046-.183.006-.389.006-.604l-.304.142c-.023-.014-.051-.027-.074-.042.091-.393.129-.815.294-1.172.6-1.286 1.227-2.56 1.88-3.82.207-.405.146-.441-.084-.706.014-.31-.188-.522-.386-.738a.456.456 0 00-.516-.142c-.419.124-.839.192-1.29.15-1.01-.095-1.395-.448-1.51-1.446-.01-.083-.088-.174-.161-.225-.309-.206-.59-.44-.76-.779a.535.535 0 00-.134-.155c-.281-.262-.3-.487-.041-.77.067-.075.143-.14.225-.197.331-.234.474-.56.516-.953.05-.48.148-.963.198-1.443.023-.207.134-.321.28-.446a9.37 9.37 0 012.433-1.46c.295-.124.414-.32.4-.618a2.731 2.731 0 00-.04-.431c-.08-.476-.21-.935-.476-1.352-.138-.215-.041-.37.217-.366.138 0 .276.023.406.064.529.155.962.467 1.363.829.262.238.52.486.824.77.07-.253.151-.463.18-.683.05-.417.083-.833.1-1.25.02-.445.148-.532.558-.349.322.142.575.367.75.655.535.884 1.032 1.788 1.203 2.827.019.1.083.22.166.284.617.473 1.09 1.067 1.5 1.719.632 1.002 1.078 2.089 1.438 3.21a.477.477 0 00.216.266c.89.454 1.612 1.109 2.235 1.875 1.33 1.634 2.155 3.522 2.725 5.529.29 1.03.512 2.071.512 3.151.005 1.005.037 2.012.037 3.015 0 .326-.06.65-.074.981-.005.087.055.233.115.252.07.023.19-.05.267-.106.055-.041.088-.124.124-.187a8504.42 8504.42 0 005.591-9.58c1.437-2.46 2.866-4.925 4.302-7.39.322-.555.654-1.104.981-1.653.12-.202.281-.252.525-.216.336.055.686.073 1.028.055.405-.023.768-.197 1-.54.473-.72.62-1.7-.061-2.488-.668-.766-1.492-1.316-2.473-1.595-.654-.187-1.322-.197-1.963.069-.538.22-.962.582-1.059 1.178-.184 1.132.401 2.117 1.226 2.533.091.045.202.18.202.274.01.431-.162.73-.658.702-.175-.01-.346-.06-.549-.097-.064.087-.147.174-.207.276-.65 1.062-1.289 2.13-1.939 3.193-1.837 3.024-3.67 6.047-5.508 9.07-.037.06-.083.115-.147.197-.157-.622-.309-1.2-.46-1.809 2.468-3.904 4.954-7.825 7.437-11.751-.064-.12-.124-.206-.16-.303a51.098 51.098 0 01-.392-.998c-.07-.183-.116-.38-.217-.546a33.301 33.301 0 00-5.412-6.77 34.071 34.071 0 00-4.411-3.588 33.088 33.088 0 00-9.649-4.495 32.965 32.965 0 00-7.314-1.209 34.045 34.045 0 00-3.058-.009c-1.05.041-2.095.114-3.136.243a32.418 32.418 0 00-7.31 1.8 32.951 32.951 0 00-8.4 4.59 33.317 33.317 0 00-5.402 5.086 33.018 33.018 0 00-6.49 11.91 33.091 33.091 0 00-1.384 8.995c-.015.889.036 1.781.077 2.676.078 1.64.326 3.262.663 4.87.064.31.148.618.222.925h10.932c-.045-.096-.078-.155-.105-.21-.323-.614-.663-1.223-.962-1.852-1.433-3.014-2.101-6.203-2.138-9.529a25.211 25.211 0 01.253-3.715c.369-2.708 1.133-5.292 2.41-7.72a22.097 22.097 0 014.462-5.836c1.787-1.686 3.827-3.029 5.903-4.312.102-.064.232-.083.346-.119l.07.055c-.019.138-.023.275-.06.404-.345 1.117-1.115 1.896-2.059 2.524a21.378 21.378 0 00-3.643 3.102 22.364 22.364 0 00-4.172 6.184c-1.216 2.68-1.828 5.493-1.94 8.42a18.58 18.58 0 00.184 3.354c.042.43.13.866.213 1.305l-.001.001zm35.331 20.642h-10.17c-.125 0-.245.017-.369.023-.626.017-1.257.05-1.884.05-.52 0-1.04-.069-1.56-.069-8.157-.004-16.309-.004-24.465-.004h-.318c2.174 2.717 4.656 5.002 7.498 6.89 6.162 4.09 12.96 5.955 20.347 5.59 6.618-.331 12.61-2.47 17.966-6.355a32.688 32.688 0 006.388-6.108H58.75c-.037.047-.072.08-.096.12-.382.66-.802 1.306-1.138 1.988a16.39 16.39 0 01-3.661 4.889 13.674 13.674 0 01-4.008 2.556c-1.362.56-2.786.88-4.259.976-1.507.096-2.988.005-4.445-.385-2.238-.6-4.144-1.769-5.808-3.353-.884-.843-1.67-1.77-2.31-2.81-.07-.113-.102-.247-.153-.37.027-.019.055-.036.087-.055.07.06.147.114.208.178.253.294.488.61.755.894 1.57 1.668 3.505 2.749 5.665 3.454 1.22.399 2.474.65 3.748.807 1.197.146 2.405.178 3.602 0 2.533-.38 4.596-1.631 6.341-3.446 1.194-1.24 2.17-2.643 3.068-4.108.263-.431.51-.867.802-1.352h.001zm19.256-30.393c-.023 0-.046-.004-.07-.004L66.096 51.443H76.9c1.42-5.952 1.262-11.838-.496-17.684zM50.03 80.852c.092-.078.152-.124.212-.17.59-.467.654-1.407.115-1.933-.423-.413-.958-.481-1.52-.426-.488.045-.97.11-1.46.17-.303.036-.603.077-.953.124.22 1.823.437 3.623.65 5.419.078.009.105.018.133.018.783-.092 1.57-.174 2.349-.28.498-.068.977-.206 1.359-.563a1.31 1.31 0 00.142-1.783 1.317 1.317 0 00-.52-.393c-.148-.072-.308-.114-.507-.183zm-20.752-5.745c-.7 1.667-1.395 3.335-2.105 5.03.203.078.373.142.557.216.576-1.365 1.134-2.694 1.69-4.027l.065.013.713 3.422c1.019-.66 1.98-1.287 2.944-1.915l.046.042c-.557 1.338-1.12 2.675-1.686 4.036.198.083.364.151.557.229.714-1.704 1.414-3.377 2.124-5.067-.212-.087-.396-.155-.581-.229-1.004.67-1.999 1.324-3.022 2.002-.03-.138-.055-.225-.072-.312l-.567-2.872c-.083-.413-.175-.5-.663-.568zM40.024 78.4c-.102 1.833-.198 3.63-.3 5.475.189.019.365.032.59.05.083-1.48.16-2.918.239-4.356.023-.005.05-.005.073-.009.595.976 1.189 1.947 1.816 2.978.731-.953 1.431-1.87 2.132-2.781l.069.027c-.078 1.444-.152 2.89-.23 4.353h.589c.097-1.824.198-3.63.294-5.434-.376-.078-.644-.042-.88.293-.543.779-1.132 1.521-1.703 2.277a15.18 15.18 0 01-.221.28L40.64 78.45c-.207-.019-.378-.031-.617-.05h.001zm20.324-.123c.184-.174.345-.307.479-.458.718-.81.285-2.222-.77-2.493-.515-.132-1.017-.045-1.501.174-.658.299-1.312.592-1.967.889-.064.033-.129.073-.207.12l2.284 4.984c.203-.091.369-.17.553-.252-.299-.66-.585-1.287-.88-1.943.507-.228.977-.444 1.433-.65.078.032.13.055.175.077.627.34 1.252.679 1.874 1.023.336.183.63.132.935-.16-.792-.432-1.58-.863-2.408-1.311zM34.865 7.312c.134-.087.222-.147.31-.207.376-.284.68-.618.712-1.122.074-1.182-.806-1.983-1.984-1.736-.806.165-1.593.445-2.386.673-.106.032-.212.073-.345.114.534 1.75 1.068 3.482 1.602 5.237.203-.06.373-.114.572-.174-.212-.696-.416-1.365-.618-2.048.535-.16 1.023-.306 1.525-.463.727.532 1.45 1.055 2.169 1.577.23-.07.442-.133.704-.216a187.61 187.61 0 01-2.261-1.636zM50.11 3.097l-1.078 5.378c.22.047.392.078.58.114.148-.71.285-1.388.424-2.056.064-.005.091-.019.12-.013.441.082.889.164 1.33.26.074.018.152.101.194.175.133.247.249.503.373.76l.723 1.502c.24.046.46.093.723.143-.41-.862-.802-1.673-1.202-2.52.152-.014.24-.027.327-.037.705-.05 1.249-.476 1.424-1.108.201-.738-.02-1.37-.655-1.769a3.045 3.045 0 00-.866-.352c-.617-.152-1.243-.257-1.87-.381a20.948 20.948 0 01-.547-.096zm-4.726 5.232c1.312.083 2.805-.967 2.824-2.859.013-1.595-1.226-2.813-2.828-2.813-1.608 0-2.815 1.237-2.819 2.872 0 1.58 1.253 2.87 2.823 2.8zM28.16 6.537c-1.317-.055-2.847 1.008-2.851 2.772-.005 1.604 1.257 2.905 2.813 2.91 1.58.004 2.837-1.21 2.843-2.75.004-1.64-1.226-2.927-2.805-2.93v-.002zm10.118 74.031c-1-.23-1.957-.45-2.952-.673.143-.633.281-1.229.424-1.86 1.11.246 2.186.49 3.297.737.042-.197.07-.349.106-.523-1.303-.293-2.57-.581-3.874-.874-.409 1.8-.815 3.563-1.224 5.355 1.322.298 2.606.59 3.919.884.042-.187.078-.344.114-.522-1.123-.257-2.214-.508-3.33-.76.153-.66.296-1.265.443-1.906 1 .224 1.958.44 2.944.659.05-.178.087-.33.133-.518v.001zm29.848-66.064c.116-.146.207-.27.323-.416-.802-.632-1.575-1.246-2.363-1.87.414-.518.801-1.008 1.202-1.507a739.94 739.94 0 012.653 2.085c.12-.147.217-.27.331-.417l-3.136-2.465-3.436 4.32c1.069.838 2.11 1.659 3.169 2.493l.318-.427c-.908-.715-1.782-1.406-2.676-2.112.419-.526.816-1.021 1.23-1.543.81.627 1.589 1.236 2.385 1.86v-.001zM51.69 77.869c.498 1.773.99 3.514 1.492 5.3a1439.2 1439.2 0 003.879-1.08c-.06-.188-.102-.33-.157-.508-1.11.306-2.188.604-3.294.906-.183-.65-.35-1.255-.529-1.892.985-.28 1.935-.545 2.91-.82-.05-.178-.096-.335-.146-.508l-2.912.8c-.179-.635-.35-1.232-.52-1.845l3.26-.911a40.988 40.988 0 01-.146-.514c-1.294.362-2.556.71-3.837 1.072zM58.072 5.12C56.668 6.561 55.268 8 53.854 9.447l.483.183.083.055 1.004-1.195 2.906 1.104c.032.54.06 1.053.087 1.588.18.07.355.134.595.221l-.364-6.057a24.602 24.602 0 01-.575-.225h-.001zM37.137 3.404a4166 4166 0 00.783 5.434c.22-.033.391-.06.589-.087-.092-.656-.175-1.274-.267-1.925.365-.055.695-.105 1.027-.151.479-.064.958-.138 1.378-.408.667-.426.952-1.025.805-1.814-.138-.706-.562-1.154-1.257-1.296a3.323 3.323 0 00-1-.038c-.677.07-1.35.184-2.058.285zm47.432 39.917c-.041-.15-.05-.325-.134-.453-.262-.417-.51-.858-.838-1.22-.77-.846-1.786-.489-2.265.097a3.177 3.177 0 00-.66 1.32c-.114.518.236.884.756.765.221-.052.442-.128.658-.207a1.554 1.554 0 011.207.028 2.9 2.9 0 00.47.178c.438.124.778-.105.806-.507v-.001zm-76.737.714c.406-.036.585-.191.571-.56a1.179 1.179 0 00-.079-.397 3.864 3.864 0 00-.935-1.342c-.529-.5-1.15-.582-1.763-.188-.664.431-.977 1.1-1.11 1.851-.056.311.23.61.553.59.239-.013.488-.064.709-.15.507-.197.995-.224 1.492.014.175.083.373.124.562.183zm17.644-31.437c-.033.129-.06.23-.084.33-.184.774-.63 1.338-1.376 1.632-1.06.416-2.234-.064-2.828-1.132-.774-1.398.014-3.006 1.598-3.244.253-.036.51-.036.791-.055.02-.187.038-.352.053-.518-1.153-.256-2.4.422-2.981 1.393-.626 1.05-.424 2.465.497 3.418.867.898 2.252 1.131 3.298.56.954-.518 1.585-1.526 1.506-2.341a9.473 9.473 0 01-.474-.042zM15 56.397a.385.385 0 00.038-.055c-.351-.01-.369-.249-.378-.482l-.083-1.874c-.005-.119.01-.242.014-.362.023 0 .046-.004.069-.004.29.953.585 1.905.875 2.858h.106l.902-2.853c.042.083.056.1.056.119-.01.687-.02 1.37-.032 2.057 0 .114 0 .233-.037.339-.038.105-.115.196-.143.243h1.34c-.304-.064-.346-.298-.35-.532-.023-.842-.047-1.69-.055-2.534-.005-.403.014-.403.392-.518.008-.004.008-.026.023-.063h-1.125c-.225.756-.391 1.54-.695 2.277h-.088c-.234-.76-.474-1.517-.708-2.282h-1.12c.032.041.041.064.06.073.36.138.373.142.369.517-.01.711-.005 1.421-.055 2.127-.024.344.087.797-.43.953.355-.005.706-.005 1.055-.005zm47.24 5.121c.009-.017.023-.036.032-.055-.281-.027-.332-.215-.342-.425-.03-.647-.059-1.293-.082-1.944-.005-.124 0-.247 0-.37.023-.005.051-.005.074-.01.29.953.584 1.906.875 2.859.028 0 .055.005.087.005.042-.083.087-.16.116-.248.243-.769.483-1.544.727-2.317.023-.074.06-.143.088-.212l.064.014v.243c-.014.619-.024 1.237-.041 1.851-.005.229.05.495-.332.554l.06.046h1.441c-.216-.073-.336-.21-.345-.435-.032-.829-.079-1.658-.083-2.492 0-.28-.064-.65.386-.733h-1.081c-.107.385-.208.765-.318 1.145-.115.38-.24.76-.364 1.136-.027 0-.06-.005-.088-.005-.124-.37-.253-.746-.368-1.117a53.696 53.696 0 01-.34-1.154h-1.092c.36.16.405.21.396.613-.021.77-.048 1.54-.083 2.31-.009.306-.028.613-.406.737.342.004.682.004 1.019.004zm-9.902-3.664c.327.083.303.333.308.571 0 .208.004.413.004.62v.407h-1.026c.023-.508-.055-.994.055-1.452.092-.051.156-.087.272-.147h-1.36c.084.115.246.234.25.358.031.851.05 1.709.036 2.56-.004.267.084.624-.33.734h1.34c-.222-.097-.254-.28-.26-.468-.007-.32-.007-.642-.007-.963v-.388h1.013c0 .48.017.93-.01 1.374-.01.156-.125.307-.18.44h1.285c-.244-.078-.312-.252-.318-.468-.009-.906-.023-1.813-.027-2.72 0-.11.046-.22.065-.311.1-.047.17-.083.24-.115-.006-.01-.006-.019-.011-.033h-1.339zm6.614.155c.308-.068.506.023.612.266.133.307.193.641.06.957-.06.147-.216.261-.341.376-.051.046-.134.055-.194.078.18.444.346.875.525 1.3.221.523.801.757 1.345.546.01-.005.005-.027.01-.042-.396-.2-1.088-1.43-1.097-1.951.093-.078.194-.151.281-.233.3-.29.355-.646.226-1.013-.125-.344-.448-.435-.783-.458-.037-.005-.078-.005-.114-.005-.498 0-.996 0-1.493.005-.056 0-.11.014-.171.023l-.06.059c.438-.014.41.262.41.518v2.336c0 .284.074.605-.303.743h1.413c-.327-.207-.332-.207-.336-.43a231.01 231.01 0 01-.041-2.63c0-.148.03-.294.05-.446v.001zM39.12 61.477c-.25-.087-.305-.261-.305-.494-.004-.922-.023-1.847-.027-2.768 0-.09.046-.183.065-.26.327-.056.524.068.63.393.092.28.115.563.02.852-.097.275-.314.394-.559.426.084.175.152.317.213.459.142.343.262.7.423 1.04.185.389.886.563 1.276.334-.45-.289-1.11-1.461-1.106-1.966.097-.077.194-.15.281-.233.304-.29.342-.646.222-1.013-.115-.344-.433-.421-.76-.458-.055-.005-.106-.005-.161-.005-.498 0-.996 0-1.492.005-.051 0-.097.014-.171.023.382.188.382.188.382.619 0 .787 0 1.57-.004 2.359 0 .274.041.582-.342.687h1.415zm-14.955-1.832c.083.196.161.375.234.554.12.298.226.6.365.888.197.418.88.605 1.265.399-.608-.518-.843-1.25-1.114-1.97.092-.068.152-.114.212-.155a.966.966 0 00.354-1.059c-.096-.316-.373-.49-.814-.513-.06-.005-.125-.005-.185-.005-.474 0-.948 0-1.423.005-.046 0-.097.014-.143.023a.435.435 0 01-.045.055c.33-.005.391.201.391.426 0 .884-.013 1.769-.019 2.652 0 .244-.05.435-.322.518h1.423c-.249-.055-.336-.225-.336-.444a296.99 296.99 0 01-.005-2.832c0-.242.143-.33.365-.22a.598.598 0 01.234.208c.36.562.152 1.227-.437 1.47zm-.143-5.082c.138.353.27.692.401 1.032.308.797.506.925 1.358.852.05-.005.102-.028.184-.055-.46-.224-1.12-1.356-1.17-1.97.074-.06.166-.12.24-.192.281-.27.401-.592.299-.977-.087-.348-.36-.471-.677-.526a1.61 1.61 0 00-.3-.023c-.487 0-.975 0-1.468.004a.24.24 0 00-.092.023c.097.12.249.225.276.352.055.253.052.514.046.775-.005.646-.023 1.297-.032 1.943-.005.242.023.503-.309.59h1.377c-.23-.068-.294-.233-.3-.444-.013-.86-.027-1.722-.036-2.583 0-.155.037-.312.055-.454.286-.114.525.014.646.321.253.627.06 1.131-.498 1.332zm16.345-17.248c.05-.124.087-.201.11-.284.166-.573.19-1.16.102-1.745-.212-1.458-.724-2.772-1.86-3.78-.696-.618-1.456-1.122-2.378-1.338-.156-.036-.33-.023-.492-.031-.005.031-.014.059-.019.091.083.046.161.095.245.133.756.31 1.423.8 1.943 1.429.995 1.2 1.575 2.607 2.017 4.078.134.448.212.924.331 1.447zm11.68 17.194c-.018-.147-.028-.366-.068-.582-.125-.683-.494-1.077-1.097-1.196-.604-.114-1.207.128-1.524.697-.456.82-.465 1.695-.028 2.519.433.81 1.667.875 2.257.166.368-.446.432-.981.46-1.604zm25.63.069c0-.151.01-.308 0-.458-.055-.706-.45-1.232-1.026-1.366-.705-.16-1.323.087-1.663.742-.41.783-.382 1.6-.023 2.401.064.142.175.27.294.371a1.434 1.434 0 002.192-.454c.198-.384.254-.805.226-1.236zM65.528 9.474c.102-.174.18-.316.278-.486-1.258-.723-2.492-1.434-3.75-2.153-.1.174-.184.322-.276.486.552.321 1.063.623 1.603.934-.829 1.434-1.644 2.836-2.474 4.27.18.105.332.197.516.307.839-1.434 1.658-2.849 2.488-4.274.557.31 1.068.6 1.616.916zm-33.3 52.081c.004-.101.017-.183.013-.266-.01-.334-.041-.669-.036-1.003.004-.541.018-1.082.041-1.622.014-.334-.079-.723.396-.852h-1.114c-.015.018-.033.037-.047.055.46.004.498.321.511.623.023.572.023 1.141.028 1.714 0 .01-.018.017-.07.055-.45-.825-.902-1.645-1.344-2.447H29.56c.342.05.424.28.437.568 0 .037.006.078.006.114-.018.67-.005 1.343-.065 2.012-.031.343.115.815-.424.953h1.193l.032-.06c-.438.032-.539-.229-.543-.563-.01-.71-.013-1.416-.023-2.126 0-.018.023-.032.055-.077.125.223.24.424.35.631l1.036 1.911c.13.224.29.394.614.38zm8.727-8.778c-.004-.014-.004-.027-.01-.046h-1.137l-.047.06c.526 0 .503.38.535.696.037.335.041.67.052 1.004.008.224 0 .448 0 .673-.034.01-.066.019-.102.027l-1.35-2.46h-1.027c-.014.019-.023.037-.037.055.378.014.451.252.447.531-.023.83-.055 1.66-.088 2.493-.009.252-.045.494-.359.573h1.216c-.51-.189-.53-.189-.557-.688-.032-.669-.032-1.342-.041-2.011 0-.036.023-.072.055-.151.1.183.188.325.266.472l1.184 2.172a.519.519 0 00.548.288c.005-.114.019-.216.019-.321 0-.87 0-1.736.005-2.606 0-.16.004-.325.055-.476.031-.097.143-.166.229-.239.042-.024.098-.028.144-.046zm25.892 2.396c.092-.064.142-.096.197-.132-.004-.015-.004-.032-.008-.047h-1.322c.028.06.06.083.097.078.22-.009.299.128.308.317.01.22.028.444 0 .66-.014.119-.087.31-.17.329-.134.032-.35.005-.438-.087a1.75 1.75 0 01-.386-.632 3.2 3.2 0 01-.07-1.695c.056-.261.161-.528.304-.756.184-.303.543-.39.898-.28.314.092.415.248.443.66.004.054.023.105.036.155.023 0 .046-.004.065-.004.023-.28.041-.56.064-.851-.096-.038-.17-.087-.248-.093-.29-.023-.58-.059-.87-.036-.765.06-1.396.59-1.516 1.342-.07.426-.06.885.01 1.316.1.636.58 1.08 1.178 1.108.447.023.899-.041 1.35-.078.073-.005.142-.052.212-.073-.268-.408-.13-.807-.134-1.202v.001zm-17.952 6.341c.013-.023.023-.046.036-.07-.317.028-.428-.136-.432-.397a483.01 483.01 0 01-.037-2.745c0-.1.032-.202.05-.293.305-.036.525.1.613.43.069.275.087.569.078.853-.01.316-.147.568-.515.65.175.018.322.01.465-.031.543-.17.888-.725.802-1.265-.089-.563-.41-.807-1.083-.82h-.046c-.443 0-.89 0-1.332.004-.055 0-.11.014-.24.028.176.064.286.1.415.147.019.133.051.26.051.388.005.803.01 1.605 0 2.406-.004.293.027.619-.387.71.52.005 1.041.005 1.562.005zm6.161-3.661l-.013.041c.046.019.093.05.138.055.208.032.263.16.23.35-.013.072-.022.15-.045.223-.25.784-.498 1.572-.756 2.35-.084.247-.16.504-.497.637h.953c-.069-.105-.212-.224-.198-.321.042-.32.138-.636.22-.967a42.3 42.3 0 00.839-.045c.074.404.138.788.203 1.141-.092.087-.143.133-.203.188h1.353c-.243-.097-.312-.303-.363-.513-.229-.963-.456-1.93-.686-2.892-.018-.087-.05-.169-.078-.251-.382.005-.737.005-1.097.005v-.001zm13.45 3.661c-.25-.102-.295-.316-.346-.514a88.684 88.684 0 01-.47-1.887c-.097-.412-.18-.828-.272-1.255H66.28a.24.24 0 00.143.091c.222.028.281.155.235.357-.013.06-.019.12-.037.18-.255.816-.518 1.63-.787 2.442-.079.233-.147.48-.419.58h.893c-.073-.096-.216-.2-.203-.283.051-.335.148-.664.226-.998.295-.02.544-.033.833-.046.074.394.148.779.226 1.209-.074.037-.138.073-.253.133.506-.01.935-.01 1.368-.01v.001zm-32.042-5.123c-.22-.15-.266-.183-.346-.503-.239-.972-.46-1.943-.695-2.919-.018-.087-.05-.169-.073-.233h-1.18c.503.243.521.248.365.76-.245.803-.506 1.6-.783 2.392-.065.183-.217.339-.318.495h.833c-.069-.11-.211-.225-.202-.321.042-.321.138-.632.221-.971h.843c.064.37.134.755.198 1.113-.097.083-.152.124-.226.187h1.364zm.097 5.077c-.244-.115-.308-.334-.36-.559-.23-.971-.455-1.943-.685-2.913-.014-.065-.042-.125-.06-.189h-1.147c.036.042.05.064.069.074.4.147.414.15.291.568-.26.838-.53 1.668-.802 2.502-.07.21-.157.412-.396.512h.907c-.079-.1-.225-.21-.212-.297.046-.335.143-.665.226-.994l.829-.042c.06.303.133.586.17.88.018.142-.037.298-.06.458h1.23zm-23.944-5.076c-.093-.155-.22-.298-.268-.463a83.81 83.81 0 01-.543-2.176c-.083-.34-.152-.678-.225-1.017h-1.147c.005.055.023.069.041.073.406.124.434.147.309.555-.247.81-.504 1.616-.774 2.418-.078.239-.147.495-.432.596h.874c-.064-.106-.188-.22-.18-.31.047-.322.139-.638.222-.972.285-.015.544-.024.829-.038.06.29.11.564.17.84.042.183.073.362-.129.493h1.253v.001zm8.714-2.02h-1.087c.004-.509-.07-.995.078-1.531.262.037.534.01.729.119.141.083.187.34.28.527.013-.242.023-.495.036-.76h-2.219c0 .013-.004.027-.004.041l.29.11c.024.137.07.293.07.444.009.78.009 1.558 0 2.332-.006.298.041.632-.396.729.08.03.163.045.248.046.543 0 1.087.009 1.63-.006.148-.004.36-.03.429-.127.133-.188.147-.435.11-.673a.249.249 0 00-.083.132c-.106.426-.304.545-.852.513-.253-.013-.267-.041-.332-.54 0-.01-.004-.014-.004-.023v-1.1c.217 0 .396.005.576 0 .184.005.386.037.502-.233h-.001zm41.334-.77c.02 0 .037-.005.06-.005v-.779h-2.142c.272.074.31.27.31.491v2.519c0 .275.022.569-.383.623.05.031.078.046.105.046.66 0 1.317.005 1.976-.004.07 0 .175-.032.203-.078a1.01 1.01 0 00.124-.72c-.036.023-.055.046-.059.073-.08.472-.212.583-.843.592-.24.004-.331-.087-.346-.334a26.29 26.29 0 01-.04-1.072c0-.083.017-.16.032-.28h.35c.165 0 .336.014.501-.014.078-.014.143-.105.217-.165a.278.278 0 01-.038-.041h-1.017v-1.46a.994.994 0 01.755.017c.268.105.18.38.235.59v.001zm-48.537 4.21h-2.101c.078.11.234.228.24.348.017.976.013 1.948.003 2.923 0 .166-.073.293-.266.316-.038.005-.07.032-.148.07.087.022.129.045.17.045l1.838-.028c.365-.004.604-.435.415-.77-.014.033-.028.06-.038.087-.128.45-.52.67-.967.532-.073-.023-.17-.114-.175-.178-.036-.482-.05-.968-.073-1.467h.419c.129 0 .262.015.391-.013.097-.023.184-.097.277-.152-.014-.03-.024-.059-.037-.09h-.986v-1.54c.277.036.516.046.733.109.294.083.161.399.249.596a.538.538 0 01.059-.014c-.004-.242-.004-.494-.004-.774zm54.235-4.998c.344.072.354.33.354.586v2.378c0 .284.028.59-.405.673.074.027.091.042.114.042.66 0 1.318.004 1.976-.005.074 0 .185-.042.217-.097a.98.98 0 00.116-.71.559.559 0 00-.088.216c-.047.233-.176.39-.42.422-.129.017-.258.041-.387.041-.24 0-.327-.083-.344-.33-.015-.166-.033-.335-.038-.5-.004-.275 0-.553 0-.865.245.013.433.041.617.03.18-.007.392.015.466-.242h-1.046v-1.539c.282.032.516.037.737.093.3.077.207.384.267.6l.06-.014a95.7 95.7 0 00.041-.775c-.792-.004-1.515-.004-2.237-.004zM21.55 57.812h-2.174c.3.065.342.288.342.513.004.862-.005 1.722-.015 2.584-.004.261-.008.527-.409.531.078.051.13.078.18.078.62-.001 1.24-.011 1.86-.031a.48.48 0 00.323-.156c.12-.156.133-.522.055-.643-.019.052-.037.094-.046.134-.115.435-.549.673-.973.513-.078-.027-.165-.146-.174-.233a14 14 0 01-.05-.981c-.006-.142 0-.28 0-.426h.621c.194 0 .382-.01.466-.248H20.51v-1.544c.276.038.51.042.732.106.281.078.22.37.318.573-.01-.248-.01-.495-.01-.77zM39.996 42.67c-.673-.696-1.083-1.53-1.354-2.437-.271-.902-.396-1.828-.479-2.771-.59 1.017-.755 2.066-.295 3.166.406.98 1.04 1.74 2.128 2.042zM10.083 57.807c.308.183.336.197.258.56-.148.663-.323 1.319-.484 1.974-.01.037-.042.069-.097.147-.249-.87-.543-1.677-.644-2.524.11-.055.18-.093.294-.152H7.97c.266.078.336.288.4.508.088.307.18.614.267.922.184.637.364 1.274.551 1.91.06.207.172.366.425.417.032-.097.065-.17.088-.248.285-.884.562-1.773.86-2.657.111-.33.149-.733.58-.87-.353.013-.707.013-1.058.013zm31.281-.01c.16.156.35.286.464.464.494.788.756 1.64.663 2.59-.026.3-.078.517-.409.57-.005 0 0 .029-.005.038h1.59c-.386-.174-.414-.193-.419-.43-.009-.372-.064-.757.01-1.114.165-.798.35-1.613 1.127-2.085-.377-.165-.671-.063-.814.317-.148.398-.263.81-.396 1.218-.023.073-.051.142-.073.215-.07-.072-.084-.137-.102-.202-.13-.435-.25-.879-.401-1.31-.037-.11-.18-.246-.285-.256-.318-.037-.65-.014-.949-.014h-.001zm-9.161-4.97c-.575-.329-1.565-.17-2.059.294-.395.366-.562.833-.59 1.351-.026.532.037 1.053.388 1.494.502.623 1.464.6 2.017.404.032-.015.083-.038.093-.066.105-.288.165-.58.105-.888-.06.11-.088.224-.12.34-.11.37-.36.572-.708.572-.37 0-.655-.23-.784-.688-.211-.742-.217-1.493.051-2.226.073-.176.183-.334.323-.463.22-.206.492-.192.755-.078.253.11.368.308.354.582-.004.078.019.16.032.238.023 0 .052-.004.074-.004l.069-.862zm15.484 2.69c-.032-.01-.069-.014-.101-.024-.032.129-.06.257-.102.381-.092.294-.285.485-.599.532-.312.045-.557-.087-.718-.348-.088-.143-.175-.303-.194-.459a11.113 11.113 0 01-.083-1.406c.01-.375.115-.738.36-1.044.194-.244.493-.326.806-.221.304.101.424.275.437.618.006.074.023.147.033.216.022 0 .05-.005.072-.005.02-.288.038-.572.06-.87-.404-.192-.805-.175-1.191-.105-.788.142-1.29.682-1.42 1.512-.096.618-.059 1.227.346 1.74.401.504 1.45.706 2.036.408.046-.023.106-.064.114-.106.057-.269.098-.544.144-.819zm23.925 2.432c-.078-.05-.105-.078-.142-.087-.645-.178-1.599-.12-2.133.623-.382.532-.405 1.127-.336 1.732.134 1.163 1.506 1.819 2.5 1.187.052-.275.126-.563.084-.87-.078.137-.11.283-.161.42-.097.267-.286.44-.567.482-.294.046-.557-.046-.718-.307a1.968 1.968 0 01-.235-.564 3.764 3.764 0 01-.041-1.52c.06-.34.147-.673.41-.926.221-.215.483-.248.764-.142.276.1.415.302.423.59.005.07.015.138.019.208.023 0 .046-.006.07-.006.027-.274.045-.549.063-.82zm8.489-1.47c-.36-.165-.382-.192-.392-.568a23.033 23.033 0 01-.005-.802c0-.096.019-.193.033-.31.267 0 .51.004.755-.006.152-.005.3-.041.304-.243H79.71c.023-.536-.06-1.05.078-1.613.259.032.512.028.732.106.272.091.175.408.245.623l.069-.014v-.834h-2.201c.368.06.34.348.344.596.01.806.01 1.617 0 2.423-.004.249.015.523-.294.646.465-.005.944-.005 1.419-.005zm-.908 5.054c-.373-.153-.373-.153-.428-.537a1.539 1.539 0 01-.023-.252c-.005-.801-.005-1.603-.005-2.406 0-.1.024-.206.042-.37.258.041.502.041.714.124.281.11.114.425.249.622l.041-.88h-2.795v.958c.096-.28.105-.568.257-.692.161-.127.456-.096.7-.132.033.114.06.174.06.229-.004.916-.019 1.828-.019 2.744 0 .316-.12.508-.456.527-.004 0-.008.023-.017.055a105.1 105.1 0 001.68.009zm-63.832-3.73l.055.87c.114-.215-.027-.522.25-.636.211-.088.464-.073.755-.11v.61c-.006.74.017 1.478-.015 2.22-.027.578-.031.587-.46.665-.01 0-.014.023-.033.06h1.695c.02-.023.032-.046.052-.07-.526.015-.466-.352-.508-.654-.005-.036-.005-.078-.005-.114v-2.382c0-.098.024-.189.038-.304.184 0 .345-.017.502.006.3.04.387.155.391.461 0 .083.014.161.019.244.017 0 .041-.005.06-.005l.04-.87c-.953.009-1.864.009-2.836.009zM80.4 61.459c.391.192.898.21 1.307.06.416-.152.673-.445.752-.881.078-.449-.083-.81-.456-1.076-.207-.146-.424-.275-.617-.435a1.745 1.745 0 01-.378-.422c-.124-.21-.078-.435.083-.613.194-.215.447-.215.7-.134.226.074.359.225.364.473 0 .083.014.17.018.251.023 0 .046-.004.07-.004v-.77c-.2-.128-.471-.165-.844-.114-.446.059-.842.37-.925.779-.097.467-.046.902.378 1.213.24.18.496.335.718.532.138.128.258.302.327.481.082.21-.046.466-.23.573-.475.27-1.106-.078-1.129-.62l-.013-.297c-.023 0-.047 0-.07.005-.023.334-.037.673-.055 1zm-5.968 0c.51.27 1.243.151 1.57-.06.553-.352.709-1.297.12-1.755-.18-.141-.383-.256-.558-.403-.18-.15-.364-.302-.506-.49-.153-.201-.107-.466.055-.655.152-.183.46-.238.723-.138a.531.531 0 01.36.532v.196h.078v-.805c-.276-.142-.572-.125-.857-.083-.424.06-.751.285-.884.706-.139.43-.11.852.258 1.177.234.207.502.372.741.578.143.124.281.265.364.43.133.266.028.577-.217.691a.814.814 0 01-.81-.063c-.24-.151-.313-.38-.29-.651.005-.073-.01-.146-.014-.215-.028 0-.051 0-.078.004-.023.335-.042.679-.055 1.004zM55.75 55.618c-.031-.01-.065-.014-.097-.023-.018.05-.042.096-.05.146-.11.476-.258.605-.733.623-.299.014-.432-.068-.441-.362-.023-.86-.015-1.717-.015-2.579 0-.129-.004-.27.052-.38.045-.096.174-.151.267-.22H53.31c.282.05.354.228.354.471 0 .87 0 1.737-.004 2.607 0 .252-.036.495-.368.55a.289.289 0 00.134.042c.603.013 1.206.03 1.81.027.11 0 .29-.073.322-.156.096-.234.134-.495.193-.746zm1.152-2.804c.303.072.35.293.35.549 0 .816.005 1.631-.005 2.447-.004.28.023.601-.41.655.12.028.212.028.31.028.496.004.993 0 1.491.017.184.006.401.06.502-.127.13-.238.184-.514.133-.793-.083.15-.12.311-.188.458-.106.228-.46.353-.783.307-.249-.036-.304-.22-.31-.416-.004-.862 0-1.724.006-2.584 0-.114.004-.244.06-.335.054-.087.18-.133.294-.211-.502.005-.976.005-1.45.005zm-2.98-2.393c-.244-1.442.23-2.743.792-4.025a1.994 1.994 0 00-.092-.051c-.226.21-.447.417-.704.66-.029-.125-.084-.234-.065-.335.05-.284.092-.573.203-.834.11-.27.124-.495-.089-.724-.128.197-.317.376-.377.59-.317 1.138-.4 2.297-.189 3.465.074.449.18.893.52 1.255zm1.114-10.893c.539 0 1.032.05 1.511.302-.558.394-1.155.71-1.607 1.22.92-.487 1.878-.868 2.98-1.036-.125-.087-.18-.148-.25-.17-.313-.1-.625-.188-.938-.29-.093-.03-.18-.086-.268-.132.055-.087.092-.21.17-.26.54-.345 1.124-.56 1.769-.578.244-.01.49 0 .733 0-.59-.32-1.193-.459-1.843-.27-.663.187-1.253.526-1.823.907-.139.097-.286.201-.433.307h-.001zM28.27 61.472c-.249-.11-.253-.325-.258-.535-.004-.816-.01-1.631-.004-2.447 0-.256-.06-.545.262-.678h-1.294c.083.105.216.206.249.335.05.22.05.453.046.682-.005.664-.023 1.324-.032 1.989-.005.28 0 .56-.355.659.465-.005.926-.005 1.386-.005zm45.35.042c-.073-.114-.21-.229-.21-.348-.025-.949-.015-1.902-.025-2.85 0-.21.065-.367.277-.458H72.23c.382.174.396.187.396.586 0 .802 0 1.6-.005 2.4 0 .275-.004.56-.35.674.46-.004.926-.004 1.35-.004zm-45.17-5.123c-.221-.068-.263-.238-.263-.424-.008-.877-.023-1.756-.027-2.631 0-.155.046-.31.069-.444.106-.051.174-.087.244-.125-.005-.008-.005-.022-.01-.03h-1.4c0 .013-.004.03-.004.045.084.027.166.055.29.091.018.083.064.183.07.28.004.875.004 1.754-.006 2.63-.004.247-.023.513-.345.604.46.005.921.005 1.382.005zm8.842-33.783c.106-.365.17-.66.272-.947.216-.61.479-1.206.668-1.819.189-.6.377-1.21.313-1.86-.032-.312-.088-.619-.286-.875-.055.737-.253 1.425-.474 2.117a25.212 25.212 0 00-.575 2.089c-.093.407-.042.828.083 1.295h-.001zM6.513 39.596c.02.092.028.23.065.363.17.567.696.696 1.12.283.364-.357.483-1.03.27-1.493-.183-.399-.603-.513-.958-.261-.363.26-.464.646-.496 1.108zm76.144-.132c.01.055.018.179.046.298.069.28.226.49.515.56.29.062.511-.084.678-.3.322-.416.396-.888.217-1.383-.18-.486-.682-.586-1.055-.229-.287.265-.397.605-.401 1.054zm-76.512.174c0-.486-.188-.902-.506-1.123-.396-.27-.816-.133-.968.32-.138.422-.069.83.161 1.206.222.353.549.513.811.434.313-.095.498-.402.502-.837zm76.193-.138l-.055-.027c-.017-.417-.133-.798-.464-1.081-.332-.284-.76-.208-.967.178-.29.528-.033 1.402.501 1.686.254.133.516.114.682-.114.134-.189.208-.427.303-.642zm3.119 1.096c-.032-.249-.082-.518-.369-.642-.29-.12-.538-.005-.755.196-.28.257-.41.592-.42.964-.004.283.088.554.379.677.28.124.524 0 .737-.188.29-.26.405-.6.428-1.007zm-76.134.2c-.004-.269-.069-.548-.365-.682-.29-.133-.542 0-.754.193-.3.265-.419.618-.415 1.007.005.27.102.522.373.632.277.111.526.01.737-.186.268-.253.4-.57.424-.963zm71.722.469c0-.529-.254-.964-.659-1.164-.382-.193-.77-.023-.838.393-.083.495.074.922.47 1.238.203.16.437.274.7.142.267-.129.34-.371.327-.61zm-76.134.132c0-.49-.212-.875-.58-1.104-.429-.26-.875-.055-.926.444-.046.44.106.816.433 1.109.216.192.475.312.76.183.276-.124.323-.384.312-.632h.001zm33.901-19.05c-.437-.009-.926.505-1.022 1.448-.065.642.543 1.664 1.128 1.851-.553-1.09-.792-2.17-.106-3.299zm3.367-3.266c.331-.16.447-.412.506-.691.125-.587.175-1.174.097-1.77-.064-.453-.207-.88-.57-1.19-.116-.096-.259-.16-.388-.238-.023.068-.013.09-.004.11.704 1.113.907 2.281.382 3.527-.032.06-.019.142-.023.252zm-1.455 2.616c-.935.514-1.346 2.923-.622 3.495-.148-1.218.225-2.345.622-3.495zm-4.035 27.901c-.332.137-.63 1.407-.465 1.836h.604c-.052-.622-.093-1.213-.139-1.836zm8.225-31.952c.383.175.747.336 1.106.5.018-.022.031-.045.05-.068-.1-.11-.202-.22-.299-.32-.013-.139-.032-.266-.046-.39.05-.055.096-.1.157-.17l-.323-.61c-.014.006-.027.014-.042.02.038.16.07.32.097.453-.276.133-.529.252-.782.375.042.106.069.17.083.211zm-3.007 3.04c-.046.76.672 1.721 1.358 1.621-.45-.542-.906-1.086-1.358-1.622zm-.69 3.98c.008 1.058.55 1.511 1.017 1.566-.322-.499-.672-1.035-1.018-1.566zm9.952 6.02c-.217-.11-.451-.229-.71-.363-.018.166-.032.303-.045.446l.188.137c-.032.141-.068.28-.114.472l.68-.692z" fill="#000"/><path d="M67.247 36.257c-.052-.344-.097-.692-.157-1.036-.396-2.323-1.22-4.499-2.34-6.57a23.518 23.518 0 00-3.315-4.659 20.982 20.982 0 00-3.413-3.024 24.396 24.396 0 00-8.406-3.806c-.359-.087-.718-.148-1.083-.216-.192-.036-.303-.133-.367-.325-.115-.348-.258-.687-.387-1.025-.12-.308-.014-.446.313-.395a25.503 25.503 0 016.595 1.947 23.283 23.283 0 015.228 3.17c1.345 1.09 2.505 2.35 3.574 3.707a27.52 27.52 0 013.117 4.901c.806 1.654 1.446 3.363 1.764 5.187.074.412.037.783-.202 1.131-.175.257-.332.531-.516.783-.083.11-.212.188-.322.28a.708.708 0 01-.083-.05zM47.609 83.436a455.59 455.59 0 01-.23-1.92l.635-.087c.433-.055.866-.12 1.3-.156a2.64 2.64 0 01.661.042c.443.082.688.343.747.756.055.388-.11.741-.498.915a3.245 3.245 0 01-.851.244c-.46.077-.927.119-1.391.174-.11.023-.221.023-.373.03v.002zm-.295-2.484c-.074-.632-.148-1.232-.226-1.87.253-.035.475-.072.7-.1.364-.045.729-.1 1.096-.119a1.81 1.81 0 01.631.064.778.778 0 01.599.706c.046.393-.073.72-.428.911a2.297 2.297 0 01-.645.23c-.465.083-.94.124-1.414.183-.088.005-.18-.005-.313-.005zm10.8-2.134l-.935-2.04c.027-.036.037-.063.056-.068.63-.28 1.243-.596 1.892-.815.732-.253 1.34.146 1.45.888.075.477-.165.861-.543 1.082-.608.348-1.252.627-1.92.953zm-25.56-71.3c-.217-.71-.43-1.398-.636-2.085.037-.036.055-.068.083-.072.682-.197 1.364-.414 2.054-.574.474-.11.925.151 1.123.563.221.463.143.968-.248 1.288a2.226 2.226 0 01-.65.376c-.52.183-1.05.33-1.58.49-.036.005-.073.005-.147.014zm18.039-3.771c.373.073.714.134 1.055.211.387.087.788.146 1.151.293.732.293.931 1.077.456 1.672a1.082 1.082 0 01-.976.417c-.705-.072-1.4-.229-2.137-.352.156-.77.299-1.485.45-2.241zm-7.397 1.75c0-1.15.73-2.075 1.783-2.258a2.198 2.198 0 011.592.326c.47.307.801.783.928 1.327.27 1.1-.209 2.214-1.156 2.685-1.4.692-3.1-.316-3.147-1.87v-.21zM30.37 9.505c.01 1.243-.977 2.127-2.142 2.155-1.239.03-2.335-1.123-2.335-2.415 0-1.169 1.005-2.167 2.18-2.158 1.248.01 2.302 1.119 2.297 2.418zm27.771-3.509c.052.959.107 1.948.162 3.001-.815-.31-1.575-.6-2.326-.883.732-.715 1.446-1.412 2.166-2.118h-.002zm-19.988.257c-.115-.792-.225-1.57-.345-2.41.631-.068 1.229-.146 1.829-.187.197-.014.414.041.598.124.778.343.898 1.456.194 1.937-.262.179-.59.285-.908.362-.368.091-.755.12-1.137.17-.065.01-.134.004-.231.004zm11.666 48.22c.065-.422.106-.793.185-1.15.045-.216.161-.422.428-.446.286-.023.456.156.53.39.11.363.21.733.239 1.109.032.43-.004.866-.037 1.297a1.431 1.431 0 01-.166.517c-.137.275-.46.326-.667.097a1.117 1.117 0 01-.272-.468c-.101-.458-.167-.925-.24-1.347zm27.104.517c-.041.252-.079.622-.161.984-.051.216-.162.422-.433.44-.276.019-.419-.16-.516-.38-.29-.645-.322-1.328-.271-2.016.017-.26.082-.527.152-.778.055-.197.188-.348.423-.363a.457.457 0 01.47.303c.11.288.198.59.257.893.051.257.047.527.08.917zM55.88 59.983l-.723-.036c.138-.509.258-.968.383-1.425h.068c.088.463.175.926.272 1.461zm10.524-.032c.138-.508.257-.966.382-1.424h.074c.082.466.17.934.267 1.456-.24-.012-.482-.023-.723-.031v-.001zM34.82 53.432c.083.458.167.912.253 1.397h-.713c.133-.495.253-.948.377-1.402.028.005.055.005.083.005zm-.363 6.47c.133-.505.257-.964.382-1.422h.069c.087.463.17.922.262 1.421h-.713zM11.29 54.828h-.715l.384-1.429h.068c.084.472.17.94.263 1.43z" fill="#000"/></svg>