<svg width="177" height="87" viewBox="0 0 177 87" fill="none" xmlns="http://www.w3.org/2000/svg"><path d="M36.896 36.214a2.186 2.186 0 00-1.64-.402 2.19 2.19 0 00-1.437.882l-4.539 6.24h5.459l2.64-3.6a2.231 2.231 0 00-.483-3.12zm-21.421 8.431v.634c0 1.386.274 2.759.808 4.04a10.55 10.55 0 002.3 3.424c.985.98 2.155 1.757 3.442 2.288a10.658 10.658 0 0011.564-2.288 10.552 10.552 0 002.3-3.425c.533-1.28.807-2.653.807-4.039a5.404 5.404 0 000-.634H15.475z" fill="#000"/><path fill-rule="evenodd" clip-rule="evenodd" d="M42.355 35.041a22.065 22.065 0 012.707 16.612 22.169 22.169 0 01-9.805 13.715A21.437 21.437 0 0115.711 66.8a26.262 26.262 0 0025.865-1.008 26.375 26.375 0 0011.961-16.067 26.243 26.243 0 00-2.812-19.796 25.774 25.774 0 00-6.909-7.435 25.919 25.919 0 00-9.258-4.207 25.988 25.988 0 00-10.174-.325 25.936 25.936 0 00-9.51 3.606 26.683 26.683 0 00-9.355 9.655A26.513 26.513 0 002.082 44.19a21.663 21.663 0 013.115-9.609 21.797 21.797 0 017.142-7.173 21.872 21.872 0 0116.612-2.426 21.81 21.81 0 017.717 3.692 21.686 21.686 0 015.687 6.367" fill="#000"/><path fill-rule="evenodd" clip-rule="evenodd" d="M13.777 52.468a15.399 15.399 0 01-1.863-11.562 15.471 15.471 0 016.815-9.548 15.007 15.007 0 0113.652-.996 18.364 18.364 0 00-18.05.715A18.386 18.386 0 005.98 42.28a18.293 18.293 0 001.963 13.811 18.023 18.023 0 004.825 5.193 18.127 18.127 0 006.464 2.941 18.178 18.178 0 0013.751-2.27 18.607 18.607 0 006.55-6.749 18.489 18.489 0 002.398-9.072 15.19 15.19 0 01-2.182 6.712 15.284 15.284 0 01-4.985 5.016 15.333 15.333 0 01-11.623 1.654 15.29 15.29 0 01-5.39-2.593 15.2 15.2 0 01-3.972-4.457" fill="#000"/><path d="M67.418 60.607h-3.677V30.374h12.65c6.213 0 9.666 3.812 9.666 9.158 0 5.349-3.537 9.149-9.667 9.149h-8.972v11.926zm0-26.715v11.246h8.972c3.537 0 6.037-1.665 6.037-5.641 0-3.975-2.499-5.628-6.037-5.628h-8.972v.023zm35.627 27.23c-8.251 0-14.924-7.036-14.924-15.784 0-8.75 6.673-15.727 14.925-15.727a14.036 14.036 0 018.61 2.696 13.91 13.91 0 015.16 7.366h-3.914a10.381 10.381 0 00-3.9-4.808 10.461 10.461 0 00-5.956-1.748c-6.212 0-11.27 5.56-11.27 12.221 0 6.66 4.998 12.208 11.27 12.208 2.12.007 4.194-.613 5.959-1.78a10.657 10.657 0 003.956-4.776h3.855a14.207 14.207 0 01-5.188 7.348 14.333 14.333 0 01-8.582 2.785h-.001zm30.583 0c-8.253 0-14.914-7.036-14.914-15.784 0-8.75 6.661-15.727 14.914-15.727a14.018 14.018 0 018.611 2.693 13.894 13.894 0 015.158 7.37h-3.843a10.38 10.38 0 00-3.929-4.828 10.468 10.468 0 00-5.997-1.729c-6.202 0-11.271 5.56-11.271 12.221 0 6.66 5.069 12.208 11.271 12.208a10.74 10.74 0 005.965-1.777 10.66 10.66 0 003.961-4.779h3.843a14.195 14.195 0 01-5.187 7.35 14.326 14.326 0 01-8.582 2.783zm21.445-9.323l-3.219 8.808h-4.008l11.353-30.233h4.173l11.129 30.233h-4.115l-3.158-8.808h-12.155zm6.153-16.922l-4.881 13.487h9.715l-4.834-13.487zm12.556-.153a2.353 2.353 0 01-1.815.739 2.477 2.477 0 01-1.78-.739 2.497 2.497 0 01-.53-2.786c.138-.308.338-.585.588-.814a2.435 2.435 0 011.78-.75 2.56 2.56 0 011.816.75c.241.233.43.513.557.822.128.307.192.639.185.973 0 .675-.266 1.324-.742 1.805h-.059zm-3.325-3.366a2.102 2.102 0 00-.636 1.548 2.154 2.154 0 00.636 1.572 2.196 2.196 0 001.773.62 2.202 2.202 0 001.606-.972c.238-.362.363-.786.359-1.22a2.085 2.085 0 00-.637-1.548 2.129 2.129 0 00-1.544-.656 2.25 2.25 0 00-1.557.656zm1.497.141c.255-.018.509.02.744.117a.704.704 0 01.436.716.632.632 0 01-.259.551 1.74 1.74 0 01-.401.14.596.596 0 01.483.282.618.618 0 01.142.434v.54h-.46v-.364c0-.316-.083-.55-.26-.633a1.18 1.18 0 00-.542-.082h-.377v1.114h-.483v-2.791h.919l.058-.024zm.52.458a1.636 1.636 0 00-.613-.106h-.437v1.032h.424c.153.02.307.02.46 0a.45.45 0 00.295-.434.382.382 0 00.05-.135.37.37 0 00-.179-.368v.011z" fill="#000"/></svg>