<svg width="24" height="24" viewBox="0 0 24 24" fill="none" xmlns="http://www.w3.org/2000/svg"><g clip-path="url(#clip0)"><path d="M12.226 10.282h10.598c.117.697.176 1.364.176 1.999 0 2.26-.444 4.279-1.33 6.055-.887 1.776-2.15 3.164-3.794 4.164-1.642 1-3.524 1.5-5.65 1.5a10.425 10.425 0 01-4.37-.946A11.206 11.206 0 014.273 20.5c-1.003-1.073-1.8-2.349-2.39-3.828A12.5 12.5 0 011 12c0-1.636.295-3.192.885-4.672.59-1.48 1.386-2.755 2.39-3.828A11.209 11.209 0 017.856.944 10.426 10.426 0 0112.227 0c2.923 0 5.433 1.046 7.528 3.14l-3.056 3.14c-1.197-1.239-2.688-1.86-4.473-1.86-1.256 0-2.419.34-3.486 1.017-1.067.677-1.912 1.596-2.536 2.759A7.915 7.915 0 005.268 12c0 1.375.313 2.644.936 3.804.624 1.16 1.47 2.082 2.536 2.759a6.382 6.382 0 003.486 1.015c.848 0 1.628-.125 2.34-.374.71-.25 1.295-.564 1.753-.939a6.518 6.518 0 001.198-1.28c.342-.48.593-.933.754-1.36.162-.427.27-.834.329-1.219h-6.374v-4.124z" fill="#000"/></g><defs><clipPath id="clip0"><path fill="#fff" transform="translate(1)" d="M0 0h22v24H0z"/></clipPath></defs></svg>