<svg width="24" height="24" viewBox="0 0 24 24" fill="none" xmlns="http://www.w3.org/2000/svg"><path d="M23.982 12.025c0 1.749.011 3.497 0 5.246-.013 3.796-2.936 6.72-6.733 6.72-3.497.011-6.994.011-10.491 0C2.922 23.977.01 21.067 0 17.22V6.804C.011 2.932 2.922.022 6.794.01c3.46-.011 6.908-.011 10.367 0 3.922.013 6.808 2.898 6.82 6.832.012 1.725 0 3.448 0 5.184zm-11.979-6.67a6.624 6.624 0 00-6.657 6.657 6.61 6.61 0 006.62 6.633 6.615 6.615 0 006.682-6.633 6.62 6.62 0 00-6.645-6.657zm9.318-1.348c0-.7-.6-1.312-1.3-1.337-.724-.026-1.36.612-1.373 1.337 0 .698.599 1.31 1.3 1.336.735.025 1.373-.6 1.373-1.337z" fill="#000"/><path d="M15.988 12.026a3.978 3.978 0 01-4.023 3.972 3.99 3.99 0 01-3.96-3.984 3.996 3.996 0 015.532-3.703 3.988 3.988 0 012.45 3.715z" fill="#000"/></svg>