<svg width="124" height="31" viewBox="0 0 124 31" fill="none" xmlns="http://www.w3.org/2000/svg"><path d="M0 29.671V11.293c0-.37.29-.664.653-.664h3.625c.363 0 .653.295.653.664 0 .369.363.59.653.369 1.377-.96 2.973-1.403 4.568-1.403 2.466 0 4.714 1.108 6.164 2.732a.452.452 0 00.652 0c1.523-1.477 3.844-2.805 6.527-2.805 2.683 0 5.22 1.255 6.816 3.174 1.233 1.55 1.958 3.542 1.958 6.495v9.743c0 .369-.29.664-.725.664H27.7c-.363 0-.726-.295-.726-.664v-9.965c0-1.771-.362-2.73-.942-3.395-.798-.886-1.958-1.255-2.9-1.255-2.104 0-3.844 1.403-4.57 2.436-.072.074-.072.221-.072.295.073.59.145 1.329.145 2.067v9.743c0 .369-.29.664-.725.664h-3.843c-.363 0-.725-.295-.725-.664v-9.89c0-1.772-.363-2.732-.943-3.396-.798-.886-1.958-1.255-2.9-1.255-2.104 0-3.626 1.403-4.424 2.288-.072.074-.072.148-.072.296v11.957c0 .369-.29.664-.653.664H.653C.29 30.336 0 30.041 0 29.671zM39.956.221c1.885 0 3.408 1.477 3.408 3.396 0 1.919-1.523 3.395-3.408 3.395-1.886 0-3.409-1.476-3.409-3.395C36.62 1.697 38.143.22 39.956.22zm1.957 30.115H38.07c-.362 0-.725-.295-.725-.665V12.843c0-1.476 1.16-2.657 2.61-2.657s2.611 1.18 2.611 2.657V29.67c0 .37-.29.665-.653.665zM56.49 15.72l3.263-4.797c.145-.148.363-.295.58-.295h4.206c.58 0 .87.664.58 1.107l-5.583 7.823a.64.64 0 000 .517l6.453 9.153c.29.442 0 1.107-.58 1.107h-4.496c-.217 0-.435-.074-.58-.295l-3.988-5.832c-.145-.22-.508-.22-.653 0l-3.988 5.832c-.145.147-.363.295-.58.295h-4.496c-.58 0-.87-.665-.58-1.107l6.454-9.153a.64.64 0 000-.517l-5.366-7.897c-.29-.443 0-1.107.58-1.107h4.278c.218 0 .435.074.58.295l3.263 4.798c.145.295.435.295.653.073zm15.88 14.984c-1.45 0-2.61-1.181-2.61-2.657V2.14c0-.369.29-.664.653-.664h3.843c.363 0 .653.295.653.664v25.981c0 1.403-1.088 2.584-2.538 2.584zm32.125-.37h3.625a.656.656 0 00.653-.664c0-.369.363-.59.653-.369 1.45 1.034 3.045 1.477 4.713 1.477a9.822 9.822 0 007.324-3.322c1.523-1.771 2.465-4.207 2.465-6.938 0-5.757-4.205-10.26-9.499-10.26-1.813 0-3.408.443-4.786 1.33-.29.22-.653 0-.653-.37V2.14a.655.655 0 00-.652-.664h-3.843a.656.656 0 00-.653.664v27.531c0 .37.29.665.653.665zm9.281-15.204c2.901 0 5.294 2.362 5.294 5.388 0 2.952-2.393 5.388-5.294 5.388-2.9 0-5.293-2.436-5.293-5.388.072-3.026 2.465-5.388 5.293-5.388zm-15.3-4.502H94.85a.656.656 0 00-.653.664c0 .369-.362.59-.652.369-1.45-.96-3.118-1.476-5.004-1.476-5.293 0-9.5 4.428-9.5 10.26 0 2.73.944 5.166 2.466 6.937 1.74 2.067 4.424 3.322 7.324 3.322 1.74 0 3.264-.443 4.714-1.476.29-.222.653 0 .653.369v.073c0 .37.29.665.652.665h3.626a.656.656 0 00.653-.665V11.293c.072-.37-.29-.664-.653-.664zM89.12 25.833c-2.901 0-5.294-2.435-5.294-5.388 0-3.026 2.393-5.388 5.294-5.388 2.9 0 5.293 2.362 5.293 5.388.073 3.026-2.32 5.388-5.293 5.388z" fill="#F5A61C"/></svg>