<svg width="28" height="24" viewBox="0 0 28 24" fill="none" xmlns="http://www.w3.org/2000/svg"><g clip-path="url(#clip0)"><path d="M28 2.693c-1.048.465-2.16.77-3.299.906A5.755 5.755 0 0027.227.42a11.51 11.51 0 01-3.648 1.395A5.735 5.735 0 0019.385 0c-3.709 0-6.434 3.46-5.596 7.053A16.307 16.307 0 011.95 1.05a5.752 5.752 0 001.777 7.67 5.72 5.72 0 01-2.6-.72c-.066 2.664 1.842 5.155 4.606 5.71a5.758 5.758 0 01-2.594.097 5.75 5.75 0 005.366 3.989A11.55 11.55 0 010 20.173a16.262 16.262 0 008.805 2.582c10.667 0 16.694-9.008 16.328-17.087A11.695 11.695 0 0028 2.693z" fill="#000"/></g><defs><clipPath id="clip0"><path fill="#fff" d="M0 0h28v24H0z"/></clipPath></defs></svg>