<svg width="24" height="24" viewBox="0 0 24 24" fill="none" xmlns="http://www.w3.org/2000/svg"><path d="M5.707 11.265l4.686 2.278c.903.44.762 1.758-.21 2.003l-5.06 1.256a1.085 1.085 0 01-.874-.16 1.066 1.066 0 01-.452-.758 9.21 9.21 0 01.422-4c.208-.615.91-.9 1.489-.619h-.002zm2.07 11.215a9.402 9.402 0 003.736 1.504 1.087 1.087 0 00.86-.227 1.064 1.064 0 00.392-.79l.183-5.195c.033-.997-1.2-1.495-1.873-.754l-3.49 3.864a1.071 1.071 0 00-.268.842 1.067 1.067 0 00.46.756zm6.836-5.153l2.766 4.407a1.068 1.068 0 00.74.49 1.085 1.085 0 00.86-.232 9.303 9.303 0 002.48-3.169 1.07 1.07 0 00-.247-1.251 1.094 1.094 0 00-.393-.23l-4.96-1.604c-.954-.305-1.778.74-1.246 1.589zm6.977-6.198a9.256 9.256 0 00-2.37-3.249 1.073 1.073 0 00-.847-.257 1.077 1.077 0 00-.753.463l-2.917 4.31c-.56.829.222 1.903 1.185 1.626l5.016-1.43c.626-.183.946-.868.686-1.463h.002zM6.61 1.414a1.086 1.086 0 00-.562.65 1.063 1.063 0 00.098.851l4.897 8.458c.55.946 2.004.557 2.004-.534V1.072a1.047 1.047 0 00-.34-.784 1.072 1.072 0 00-.813-.283c-1.087.084-3.073.36-5.284 1.41v-.001z" fill="#000"/></svg>